HIERARCHY
ROOT Hips
{
	OFFSET -3.958830 18.904000 13.208200
	CHANNELS 6 Xposition Yposition Zposition Zrotation Yrotation Xrotation 
	JOINT LHipJoint
	{
		OFFSET 0.000000 0.000000 0.000000
		CHANNELS 3 Zrotation Yrotation Xrotation
		JOINT LeftUpLeg
		{
			OFFSET 1.800000 -1.400000 0.085000
			CHANNELS 3 Zrotation Yrotation Xrotation
			JOINT LeftLeg
			{
				OFFSET 2.215000 -6.000000 0.000000
				CHANNELS 3 Zrotation Yrotation Xrotation
				JOINT LeftFoot
				{
					OFFSET 2.500000 -6.900000 0.000000
					CHANNELS 3 Zrotation Yrotation Xrotation
					JOINT LeftToeBase
					{
						OFFSET 0.200000 -0.500000 1.950000
						CHANNELS 3 Zrotation Yrotation Xrotation
						End Site
						{
							OFFSET 0.000000 0.000000 0.000000
						}
					}
				}
			}
		}
	}
	JOINT RHipJoint
	{
		OFFSET 0.000000 0.000000 0.000000
		CHANNELS 3 Zrotation Yrotation Xrotation
		JOINT RightUpLeg
		{
			OFFSET -1.800000 -1.400000 0.085000
			CHANNELS 3 Zrotation Yrotation Xrotation
			JOINT RightLeg
			{
				OFFSET -2.215000 -6.000000 0.000000
				CHANNELS 3 Zrotation Yrotation Xrotation
				JOINT RightFoot
				{
					OFFSET -2.500000 -6.900000 0.000000
					CHANNELS 3 Zrotation Yrotation Xrotation
					JOINT RightToeBase
					{
						OFFSET -0.200000 -0.500000 1.950000
						CHANNELS 3 Zrotation Yrotation Xrotation
						End Site
						{
							OFFSET 0.000000 0.000000 0.000000
						}
					}
				}
			}
		}
	}
	JOINT LowerBack
	{
		OFFSET 0.000000 0.000000 0.000000
		CHANNELS 3 Zrotation Yrotation Xrotation
		JOINT Spine
		{
			OFFSET -0.087000 1.940000 -0.288900
			CHANNELS 3 Zrotation Yrotation Xrotation
			JOINT Spine1
			{
				OFFSET 0.000000 1.950000 0.060000
				CHANNELS 3 Zrotation Yrotation Xrotation
				JOINT Neck
				{
					OFFSET 0.000000 0.000000 0.000000
					CHANNELS 3 Zrotation Yrotation Xrotation
					JOINT Neck1
					{
						OFFSET 0.000000 1.600000 0.340000
						CHANNELS 3 Zrotation Yrotation Xrotation
						JOINT Head
						{
							OFFSET 0.000000 1.667000 -0.240000
							CHANNELS 3 Zrotation Yrotation Xrotation
							End Site
							{
								OFFSET 0.000000 0.000000 0.000000
							}
						}
					}
				}
				JOINT LeftShoulder
				{
					OFFSET 0.000000 0.000000 0.000000
					CHANNELS 3 Zrotation Yrotation Xrotation
					JOINT LeftArm
					{
						OFFSET 2.700000 1.550000 -0.730000
						CHANNELS 3 Zrotation Yrotation Xrotation
						JOINT LeftForeArm
						{
							OFFSET 5.450000 0.000000 0.000000
							CHANNELS 3 Zrotation Yrotation Xrotation
							JOINT LeftHand
							{
								OFFSET 3.450000 0.000000 0.000000
								CHANNELS 3 Zrotation Yrotation Xrotation
								JOINT LeftHandIndex1
								{
									OFFSET 0.750000 0.000000 0.000000
									CHANNELS 3 Zrotation Yrotation Xrotation
									End Site
									{
										OFFSET 0.000000 0.000000 0.000000
									}
								}
							}
						}
					}
				}
				JOINT RightShoulder
				{
					OFFSET 0.000000 0.000000 0.000000
					CHANNELS 3 Zrotation Yrotation Xrotation
					JOINT RightArm
					{
						OFFSET -2.700000 1.550000 -0.730000
						CHANNELS 3 Zrotation Yrotation Xrotation
						JOINT RightForeArm
						{
							OFFSET -5.450000 0.000000 0.000000
							CHANNELS 3 Zrotation Yrotation Xrotation
							JOINT RightHand
							{
								OFFSET -3.450000 0.000000 0.000000
								CHANNELS 3 Zrotation Yrotation Xrotation
								JOINT RightHandIndex1
								{
									OFFSET -0.750000 0.000000 0.000000
									CHANNELS 3 Zrotation Yrotation Xrotation
									End Site
									{
										OFFSET 0.000000 0.000000 0.000000
									}
								}
							}
						}
					}
				}
			}
		}
	}
}
MOTION
Frames: 10
Frame Time: 0.016667
0.625270 16.330250 -2.207990 -0.853121 -7.290109 -4.343566 -15.219600 12.018850 4.134112 7.634416 -9.354479 -22.178406 -20.521190 18.578575 45.612227 0.503147 11.327680 1.002785 0.214830 -0.247630 -0.038210 18.533307 -8.690842 3.922615 -6.624428 6.313743 -47.638383 0.034731 -10.143204 50.962488 -0.909610 -7.525320 2.056617 -0.013190 0.712550 0.215820 -3.888921 -3.267366 -8.712070 17.438647 -11.256655 28.462481 -6.513120 -5.973122 1.442925 2.349281 -8.754942 -10.290864 -18.886381 8.926078 30.883012 -7.874650 4.874930 -11.713530 -25.364417 -10.892409 3.291411 -26.308846 -1.864906 -7.878150 -46.316078 -75.800038 28.469661 -3.855724 3.037219 0.904760 0.370870 -0.243010 0.344480 20.720425 14.330734 7.669088 34.501857 -2.851674 -12.007854 1.071653 39.941412 -0.164089 1.376298 -1.216637 -0.583960 0.598570 0.247030 -0.314790 
0.615920 16.295760 -2.198900 -1.013388 -7.331051 -4.762075 -15.220718 11.964560 4.110645 8.066298 -9.338344 -22.131763 -20.490996 18.978726 46.401214 0.580164 11.469890 0.950738 0.254290 -0.191590 -0.030340 18.549239 -8.605922 3.998496 -6.994246 6.640536 -48.111740 -0.036954 -10.820344 54.076306 -1.052976 -8.137035 1.864092 0.006540 0.684220 0.215200 -3.916457 -3.285628 -8.756610 17.943335 -11.527573 28.767176 -6.571195 -6.102730 0.829834 2.265148 -9.185063 -10.317540 -20.026257 9.347949 31.305796 -7.306140 4.501240 -11.200560 -26.150371 -11.189651 3.221989 -26.915214 -1.777343 -8.384285 -41.316789 -72.664965 23.377631 -3.791610 3.069338 0.880440 0.352930 -0.231050 0.358360 21.660490 14.908276 7.679815 34.520438 -1.822370 -11.404253 1.195148 38.054536 -0.186008 1.419954 -1.232265 -0.545310 0.571350 0.213550 -0.296540 
0.607920 16.257380 -2.183450 -1.267940 -7.186792 -6.189677 -15.213282 11.978978 4.086482 8.666583 -9.343433 -21.465611 -20.167270 19.530778 47.951013 0.686282 11.716271 0.859435 0.327110 -0.109660 0.012170 18.556430 -8.592579 3.997309 -7.173483 6.930871 -47.531809 -0.875512 -11.507109 58.861378 -1.298101 -8.984841 1.604792 0.028870 0.620360 0.212500 -3.937297 -3.339874 -8.800680 18.655979 -12.085960 29.768681 -6.942213 -6.356955 -0.214625 2.314354 -9.552495 -10.545976 -21.695937 10.236545 33.328552 -6.292900 4.014350 -11.500350 -27.596808 -12.266899 3.133436 -27.420678 -2.009873 -9.059142 -32.739606 -64.956529 14.991028 -3.667785 3.057919 0.894840 0.294700 -0.182610 0.375740 22.976004 16.168640 7.906589 35.247793 -0.310487 -10.767490 1.187507 35.111266 -0.319516 1.483587 -1.217799 -0.496020 0.548810 0.161820 -0.284910 
0.592420 16.209080 -2.156960 -1.649075 -7.495270 -7.101640 -15.208160 11.908814 4.068307 9.938038 -9.027477 -21.010308 -20.781732 20.646450 48.907514 0.767037 12.053694 0.726956 0.362630 -0.061090 0.045190 18.577517 -8.486893 4.076626 -7.422390 7.716454 -47.421261 -1.519285 -12.513924 64.469648 -1.591128 -10.006450 1.296300 0.047040 0.562390 0.205160 -3.984718 -3.342985 -8.888459 19.836631 -12.216969 29.468426 -7.494242 -6.229755 -0.614893 2.595885 -9.426733 -10.706597 -22.457243 10.726462 36.188656 -6.683350 3.915270 -11.786540 -28.929794 -13.309151 3.014019 -28.891705 -3.236845 -8.943714 -24.717015 -55.297031 8.308814 -3.601726 2.962091 0.925560 0.252660 -0.137590 0.368220 23.616107 17.180925 8.027866 36.878207 1.234352 -10.440214 1.903234 33.402328 -0.324222 1.521355 -1.183461 -0.478620 0.543400 0.142930 -0.291960 
0.574740 16.168130 -2.132580 -1.641032 -7.796166 -7.992971 -15.211559 11.880470 4.046511 10.589211 -8.652422 -20.619410 -20.910757 21.622923 50.088461 0.868439 12.342936 0.618751 0.433680 0.007550 0.128230 18.585121 -8.389127 4.149762 -7.935813 8.525532 -47.095447 -2.191381 -13.381494 69.757119 -1.877900 -10.929816 1.033401 0.070070 0.479630 0.208440 -3.998338 -3.393519 -8.972360 20.480143 -12.017114 28.908656 -7.734511 -6.069139 -0.753348 2.864815 -9.200216 -10.994833 -23.077645 11.202091 39.217606 -7.132200 3.818950 -11.980370 -30.249842 -14.392316 3.152291 -30.631623 -4.418513 -8.156780 -17.993610 -45.040351 3.831660 -3.542295 2.870377 0.946510 0.203880 -0.080270 0.364200 24.325573 18.284335 8.072755 38.289114 2.732086 -10.393051 2.884949 33.109282 -0.282426 1.556911 -1.182322 -0.437950 0.517910 0.090630 -0.305740 
0.561980 16.131790 -2.102450 -1.280452 -8.040361 -8.451555 -15.208454 11.852565 4.014841 10.688546 -8.148569 -20.420760 -21.006978 22.447667 50.833900 0.955494 12.548042 0.546115 0.456390 0.034800 0.156300 18.599720 -8.310769 4.210378 -9.005273 9.184478 -46.724188 -2.450874 -14.368748 74.157859 -2.108140 -11.730712 0.813762 0.073090 0.439450 0.212320 -4.033008 -3.418639 -9.029001 20.815262 -11.599780 27.320157 -7.918100 -6.043016 -0.329460 3.092852 -8.838227 -11.586118 -23.327664 12.114985 42.050946 -7.364990 4.211400 -10.929180 -30.716778 -15.611328 3.804773 -33.010687 -5.184247 -6.709957 -12.786187 -35.271117 1.160510 -3.535958 2.779881 0.946190 0.184980 -0.052800 0.358240 24.332572 19.417048 8.075972 40.387290 4.248386 -10.861567 3.943500 34.858227 -0.252105 1.569630 -1.194539 -0.410710 0.493390 0.070540 -0.306810 
0.544090 16.113950 -2.068290 -0.841658 -8.641068 -9.188515 -15.188983 11.904920 3.963142 10.648782 -7.479315 -19.687716 -20.835048 23.020033 51.309708 1.031239 12.637539 0.526824 0.471480 0.078050 0.175740 18.606796 -8.342812 4.205835 -9.524601 9.860319 -45.318656 -2.907913 -14.876904 77.712657 -2.291713 -12.300675 0.696509 0.083170 0.410210 0.177780 -4.073998 -3.393310 -9.039734 21.000443 -11.281866 26.100776 -8.370640 -6.065542 -0.008233 3.341523 -8.372549 -12.344529 -23.216895 13.047117 45.018138 -7.426760 4.808210 -10.133880 -31.569387 -16.956250 4.688008 -34.175872 -4.733649 -5.270149 -8.979610 -27.138240 -0.163416 -3.521568 2.667929 0.943040 0.166030 -0.026880 0.363530 24.686863 20.691772 8.122473 42.478579 5.827084 -10.877592 4.761047 35.080267 -0.278042 1.597038 -1.174702 -0.400860 0.508490 0.036000 -0.300510 
0.516760 16.095120 -2.026960 -0.280105 -9.359479 -9.485981 -15.150559 11.911345 3.913187 10.456578 -6.710918 -19.332216 -20.619990 23.612798 51.722265 1.083489 12.791785 0.503373 0.415410 0.013670 0.138230 18.635334 -8.423525 4.180522 -10.171901 10.516546 -43.675067 -3.011651 -15.393964 80.331866 -2.398823 -12.755070 0.619606 0.051200 0.451910 0.159840 -4.177619 -3.224556 -9.019403 21.230413 -10.642749 23.915991 -9.002780 -5.893541 0.892641 3.521392 -7.890420 -13.035084 -22.520577 13.405406 47.153642 -7.532410 5.116510 -7.824910 -31.383012 -17.967876 5.688834 -35.486312 -3.550339 -4.143481 -6.835024 -21.981165 -0.702727 -3.580847 2.570007 0.929510 0.199440 -0.059860 0.358170 24.093713 21.690144 8.226136 45.283369 7.312339 -11.310723 6.899318 37.629241 0.044023 1.581205 -1.166454 -0.427720 0.530930 0.064830 -0.301190 
0.475420 16.074540 -1.995100 0.556296 -9.813641 -9.748321 -15.118914 11.949765 3.858174 9.692890 -6.044321 -19.136325 -19.915404 23.897828 52.366728 1.108848 12.933302 0.488154 0.319160 -0.083610 0.042910 18.651501 -8.573909 4.081277 -11.228314 10.779768 -41.514299 -2.695731 -15.842140 81.559652 -2.428535 -13.006488 0.577771 0.011210 0.542890 0.150780 -4.249853 -3.055145 -8.938299 20.738227 -9.732100 21.987589 -8.894800 -5.719838 1.646157 3.200084 -7.977960 -13.113054 -22.647754 13.785755 47.564964 -7.139700 4.827100 -6.089460 -30.114028 -17.583557 6.172063 -36.961174 -2.512936 -3.476910 -6.505980 -19.906915 -0.822290 -3.677927 2.487673 0.907580 0.251380 -0.116950 0.348050 23.486782 21.531116 8.040443 47.550870 9.000270 -11.509309 10.903587 41.936722 1.167279 1.560228 -1.162261 -0.469310 0.576730 0.141460 -0.284000 
0.414520 16.067070 -1.967230 1.492453 -10.965331 -10.218001 -15.099064 12.048315 3.835741 9.393502 -5.120369 -18.683963 -19.695378 24.431954 52.553177 1.168737 13.051270 0.487617 0.272680 -0.132930 -0.001390 18.637979 -8.795824 3.910063 -11.498654 11.107937 -38.457497 -2.714822 -15.195343 81.137511 -2.379380 -12.893211 0.629254 -0.013490 0.601790 0.151960 -4.256448 -2.875413 -8.839891 19.754501 -8.299530 20.663830 -8.129215 -5.051044 2.425458 2.803273 -8.065862 -12.819473 -22.427652 13.954175 47.401264 -7.285860 4.952870 -4.626670 -29.150329 -16.290668 6.241621 -37.548552 -1.322955 -3.662950 -6.999072 -21.000769 -0.728875 -3.728158 2.473093 0.875220 0.293670 -0.155540 0.354790 23.353230 20.655710 7.840044 48.703921 10.168556 -11.361153 17.610694 48.006884 3.817777 1.563384 -1.237587 -0.483790 0.590420 0.164810 -0.267530 
